<svg width="32" height="32" viewBox="0 0 32 32" xmlns="http://www.w3.org/2000/svg">
  <defs>
    <linearGradient id="grad" x1="0%" y1="0%" x2="100%" y2="100%">
      <stop offset="0%" style="stop-color:#0ea5e9;stop-opacity:1" />
      <stop offset="100%" style="stop-color:#0284c7;stop-opacity:1" />
    </linearGradient>
  </defs>
  
  <!-- Background rounded square -->
  <rect width="32" height="32" rx="6" fill="url(#grad)"/>
  
  <!-- Folder icon -->
  <path d="M7 10 L7 24 C7 24.5 7.5 25 8 25 L24 25 C24.5 25 25 24.5 25 24 L25 12 C25 11.5 24.5 11 24 11 L15 11 L13 9 C12.7 8.7 12.3 8.5 12 8.5 L8 8.5 C7.5 8.5 7 9 7 9.5 L7 10 Z" fill="#fff" opacity="0.95"/>
  
  <!-- Lock symbol for secure transfer -->
  <rect x="13" y="16" width="6" height="5" rx="1" fill="#0284c7" stroke="#fff" stroke-width="0.5"/>
  <path d="M14.5 16 L14.5 14.5 C14.5 13.7 15.2 13 16 13 C16.8 13 17.5 13.7 17.5 14.5 L17.5 16" stroke="#0284c7" stroke-width="1.5" fill="none" stroke-linecap="round"/>
  
  <!-- Small dots indicating connection -->
  <circle cx="10" cy="14" r="0.8" fill="#fff" opacity="0.7"/>
  <circle cx="22" cy="14" r="0.8" fill="#fff" opacity="0.7"/>
</svg>
